HIERARCHY
ROOT Root
{
	OFFSET 0.000000 0.085526 -0.815750
	CHANNELS 6 Xposition Yposition Zposition Xrotation Yrotation Zrotation
	JOINT pelvis
	{
		OFFSET 0.000000 -0.050079 0.832294
		CHANNELS 6 Xposition Yposition Zposition Xrotation Yrotation Zrotation
		JOINT spine_01
		{
			OFFSET 0.000000 0.045650 0.072925
			CHANNELS 6 Xposition Yposition Zposition Xrotation Yrotation Zrotation
			JOINT spine_02
			{
				OFFSET 0.000000 -0.022106 0.063381
				CHANNELS 6 Xposition Yposition Zposition Xrotation Yrotation Zrotation
				JOINT spine_03
				{
					OFFSET 0.000000 -0.012215 0.091100
					CHANNELS 6 Xposition Yposition Zposition Xrotation Yrotation Zrotation
					JOINT clavicle_l
					{
						OFFSET 0.022930 -0.009180 0.229520
						CHANNELS 6 Xposition Yposition Zposition Xrotation Yrotation Zrotation
						JOINT upperarm_l
						{
							OFFSET 0.136760 0.000470 0.015660
							CHANNELS 6 Xposition Yposition Zposition Xrotation Yrotation Zrotation
							JOINT lowerarm_l
							{
								OFFSET 0.234220 0.004524 -0.003130
								CHANNELS 6 Xposition Yposition Zposition Xrotation Yrotation Zrotation
								JOINT hand_l
								{
									OFFSET 0.212680 0.006104 0.000160
									CHANNELS 6 Xposition Yposition Zposition Xrotation Yrotation Zrotation
									JOINT index_01_l
									{
										OFFSET 0.092010 -0.031038 0.000300
										CHANNELS 6 Xposition Yposition Zposition Xrotation Yrotation Zrotation
										JOINT index_02_l
										{
											OFFSET 0.023320 0.000571 -0.003240
											CHANNELS 6 Xposition Yposition Zposition Xrotation Yrotation Zrotation
											JOINT index_03_l
											{
												OFFSET 0.020690 0.001655 -0.002990
												CHANNELS 6 Xposition Yposition Zposition Xrotation Yrotation Zrotation
												End Site
												{
													OFFSET 0.024102 0.001808 -0.006983
												}
											}
										}
									}
									JOINT middle_01_l
									{
										OFFSET 0.092160 -0.008797 0.003860
										CHANNELS 6 Xposition Yposition Zposition Xrotation Yrotation Zrotation
										JOINT middle_02_l
										{
											OFFSET 0.030470 0.001014 -0.005920
											CHANNELS 6 Xposition Yposition Zposition Xrotation Yrotation Zrotation
											JOINT middle_03_l
											{
												OFFSET 0.025050 -0.000982 -0.004310
												CHANNELS 6 Xposition Yposition Zposition Xrotation Yrotation Zrotation
												End Site
												{
													OFFSET 0.023820 -0.000054 -0.007531
												}
											}
										}
									}
									JOINT pinky_01_l
									{
										OFFSET 0.082860 0.024648 -0.002420
										CHANNELS 6 Xposition Yposition Zposition Xrotation Yrotation Zrotation
										JOINT pinky_02_l
										{
											OFFSET 0.019290 0.001559 -0.001660
											CHANNELS 6 Xposition Yposition Zposition Xrotation Yrotation Zrotation
											JOINT pinky_03_l
											{
												OFFSET 0.014370 0.000155 -0.000950
												CHANNELS 6 Xposition Yposition Zposition Xrotation Yrotation Zrotation
												End Site
												{
													OFFSET 0.018070 0.000644 -0.001347
												}
											}
										}
									}
									JOINT ring_01_l
									{
										OFFSET 0.088670 0.009084 0.002840
										CHANNELS 6 Xposition Yposition Zposition Xrotation Yrotation Zrotation
										JOINT ring_02_l
										{
											OFFSET 0.027030 0.001408 -0.004530
											CHANNELS 6 Xposition Yposition Zposition Xrotation Yrotation Zrotation
											JOINT ring_03_l
											{
												OFFSET 0.022190 -0.000874 -0.003490
												CHANNELS 6 Xposition Yposition Zposition Xrotation Yrotation Zrotation
												End Site
												{
													OFFSET 0.023761 0.000552 -0.006767
												}
											}
										}
									}
									JOINT thumb_01_l
									{
										OFFSET 0.031330 -0.025202 -0.003920
										CHANNELS 6 Xposition Yposition Zposition Xrotation Yrotation Zrotation
										JOINT thumb_02_l
										{
											OFFSET 0.009070 -0.015656 -0.021920
											CHANNELS 6 Xposition Yposition Zposition Xrotation Yrotation Zrotation
											JOINT thumb_03_l
											{
												OFFSET 0.032390 -0.002609 -0.004770
												CHANNELS 6 Xposition Yposition Zposition Xrotation Yrotation Zrotation
												End Site
												{
													OFFSET 0.025610 0.005263 -0.001528
												}
											}
										}
									}
								}
							}
						}
					}
					JOINT clavicle_r
					{
						OFFSET -0.022930 -0.009180 0.229520
						CHANNELS 6 Xposition Yposition Zposition Xrotation Yrotation Zrotation
						JOINT upperarm_r
						{
							OFFSET -0.136760 0.000470 0.015660
							CHANNELS 6 Xposition Yposition Zposition Xrotation Yrotation Zrotation
							JOINT lowerarm_r
							{
								OFFSET -0.234220 0.004524 -0.003130
								CHANNELS 6 Xposition Yposition Zposition Xrotation Yrotation Zrotation
								JOINT hand_r
								{
									OFFSET -0.212680 0.006104 0.000160
									CHANNELS 6 Xposition Yposition Zposition Xrotation Yrotation Zrotation
									JOINT index_01_r
									{
										OFFSET -0.092010 -0.031038 0.000300
										CHANNELS 6 Xposition Yposition Zposition Xrotation Yrotation Zrotation
										JOINT index_02_r
										{
											OFFSET -0.023320 0.000571 -0.003240
											CHANNELS 6 Xposition Yposition Zposition Xrotation Yrotation Zrotation
											JOINT index_03_r
											{
												OFFSET -0.020690 0.001655 -0.002990
												CHANNELS 6 Xposition Yposition Zposition Xrotation Yrotation Zrotation
												End Site
												{
													OFFSET -0.024102 0.001808 -0.006983
												}
											}
										}
									}
									JOINT middle_01_r
									{
										OFFSET -0.092160 -0.008797 0.003860
										CHANNELS 6 Xposition Yposition Zposition Xrotation Yrotation Zrotation
										JOINT middle_02_r
										{
											OFFSET -0.030470 0.001014 -0.005920
											CHANNELS 6 Xposition Yposition Zposition Xrotation Yrotation Zrotation
											JOINT middle_03_r
											{
												OFFSET -0.025050 -0.000983 -0.004310
												CHANNELS 6 Xposition Yposition Zposition Xrotation Yrotation Zrotation
												End Site
												{
													OFFSET -0.023820 -0.000054 -0.007531
												}
											}
										}
									}
									JOINT pinky_01_r
									{
										OFFSET -0.082860 0.024648 -0.002420
										CHANNELS 6 Xposition Yposition Zposition Xrotation Yrotation Zrotation
										JOINT pinky_02_r
										{
											OFFSET -0.019290 0.001559 -0.001660
											CHANNELS 6 Xposition Yposition Zposition Xrotation Yrotation Zrotation
											JOINT pinky_03_r
											{
												OFFSET -0.014370 0.000155 -0.000950
												CHANNELS 6 Xposition Yposition Zposition Xrotation Yrotation Zrotation
												End Site
												{
													OFFSET -0.018070 0.000644 -0.001347
												}
											}
										}
									}
									JOINT ring_01_r
									{
										OFFSET -0.088670 0.009084 0.002840
										CHANNELS 6 Xposition Yposition Zposition Xrotation Yrotation Zrotation
										JOINT ring_02_r
										{
											OFFSET -0.027030 0.001408 -0.004530
											CHANNELS 6 Xposition Yposition Zposition Xrotation Yrotation Zrotation
											JOINT ring_03_r
											{
												OFFSET -0.022190 -0.000874 -0.003490
												CHANNELS 6 Xposition Yposition Zposition Xrotation Yrotation Zrotation
												End Site
												{
													OFFSET -0.023761 0.000552 -0.006767
												}
											}
										}
									}
									JOINT thumb_01_r
									{
										OFFSET -0.031330 -0.025202 -0.003920
										CHANNELS 6 Xposition Yposition Zposition Xrotation Yrotation Zrotation
										JOINT thumb_02_r
										{
											OFFSET -0.009060 -0.015656 -0.021930
											CHANNELS 6 Xposition Yposition Zposition Xrotation Yrotation Zrotation
											JOINT thumb_03_r
											{
												OFFSET -0.032390 -0.002610 -0.004760
												CHANNELS 6 Xposition Yposition Zposition Xrotation Yrotation Zrotation
												End Site
												{
													OFFSET -0.025620 0.005263 -0.001532
												}
											}
										}
									}
								}
							}
						}
					}
					JOINT neck_01
					{
						OFFSET 0.000000 0.013340 0.298010
						CHANNELS 6 Xposition Yposition Zposition Xrotation Yrotation Zrotation
						JOINT head
						{
							OFFSET 0.000000 -0.041895 0.111740
							CHANNELS 6 Xposition Yposition Zposition Xrotation Yrotation Zrotation
							End Site
							{
								OFFSET 0.000000 0.005880 0.136520
							}
						}
					}
				}
			}
		}
		JOINT thigh_l
		{
			OFFSET 0.095465 0.006192 -0.011170
			CHANNELS 6 Xposition Yposition Zposition Xrotation Yrotation Zrotation
			JOINT calf_l
			{
				OFFSET 0.013985 -0.030567 -0.374074
				CHANNELS 6 Xposition Yposition Zposition Xrotation Yrotation Zrotation
				JOINT foot_l
				{
					OFFSET 0.004190 0.018160 -0.382000
					CHANNELS 6 Xposition Yposition Zposition Xrotation Yrotation Zrotation
					JOINT ball_l
					{
						OFFSET 0.005410 -0.109393 -0.057980
						CHANNELS 6 Xposition Yposition Zposition Xrotation Yrotation Zrotation
						End Site
						{
							OFFSET -0.004640 -0.061769 0.000970
						}
					}
				}
			}
		}
		JOINT thigh_r
		{
			OFFSET -0.095465 0.006192 -0.011170
			CHANNELS 6 Xposition Yposition Zposition Xrotation Yrotation Zrotation
			JOINT calf_r
			{
				OFFSET -0.013985 -0.030567 -0.374074
				CHANNELS 6 Xposition Yposition Zposition Xrotation Yrotation Zrotation
				JOINT foot_r
				{
					OFFSET -0.004190 0.018160 -0.382000
					CHANNELS 6 Xposition Yposition Zposition Xrotation Yrotation Zrotation
					JOINT ball_r
					{
						OFFSET -0.005410 -0.109393 -0.057980
						CHANNELS 6 Xposition Yposition Zposition Xrotation Yrotation Zrotation
						End Site
						{
							OFFSET 0.004640 -0.061769 0.000970
						}
					}
				}
			}
		}
	}
}
MOTION
Frames: 4
Frame Time: 0.041667
-0.500000 0.500000 -0.815750 -0.000000 0.000000 -0.000000 0.534538 -0.464486 1.539572 5.571275 7.371136 4.893028 0.000000 0.045650 0.072925 -5.977257 -6.756133 0.359523 -0.000000 -0.022106 0.063381 0.000001 -0.000000 -0.000000 0.000000 -0.012215 0.091100 0.829563 -3.440438 -2.638583 0.022930 -0.009180 0.229520 0.000002 -0.000000 0.000000 0.136760 0.000470 0.015660 77.528528 52.043159 -75.982774 0.234220 0.004524 -0.003130 -4.338879 -9.654891 -18.148752 0.212680 0.006104 0.000160 5.059578 -3.697047 0.828921 0.092010 -0.031038 0.000300 0.000004 -0.000000 0.000002 0.023320 0.000571 -0.003240 0.000003 0.000001 0.000001 0.020690 0.001655 -0.002990 -0.000004 -0.000000 -0.000002 0.092160 -0.008797 0.003860 0.000007 0.000001 0.000001 0.030470 0.001014 -0.005920 -0.000002 -0.000001 -0.000000 0.025050 -0.000982 -0.004310 0.000002 0.000002 0.000002 0.082860 0.024648 -0.002420 0.000000 0.000000 -0.000000 0.019290 0.001559 -0.001660 0.000003 -0.000002 -0.000001 0.014370 0.000155 -0.000950 0.000001 -0.000003 -0.000001 0.088670 0.009084 0.002840 -0.000000 -0.000003 0.000002 0.027030 0.001408 -0.004530 -0.000003 -0.000001 -0.000000 0.022190 -0.000874 -0.003490 -0.000002 -0.000002 0.000000 0.031330 -0.025202 -0.003920 -0.000001 0.000001 0.000010 0.009070 -0.015656 -0.021920 0.000002 -0.000001 -0.000001 0.032390 -0.002609 -0.004770 0.000000 0.000000 -0.000002 -0.022930 -0.009180 0.229520 0.000003 0.000000 -0.000001 -0.136760 0.000470 0.015660 68.225844 -47.774755 63.609326 -0.234220 0.004524 -0.003130 -4.524360 12.721646 23.108753 -0.212680 0.006104 0.000160 -9.585541 0.482233 -1.377470 -0.092010 -0.031038 0.000300 -0.000001 -0.000000 -0.000001 -0.023320 0.000571 -0.003240 0.000006 0.000001 -0.000001 -0.020690 0.001655 -0.002990 -0.000000 -0.000002 -0.000002 -0.092160 -0.008797 0.003860 0.000003 0.000001 -0.000002 -0.030470 0.001014 -0.005920 -0.000002 -0.000004 -0.000001 -0.025050 -0.000983 -0.004310 -0.000003 -0.000000 -0.000001 -0.082860 0.024648 -0.002420 -0.000003 -0.000000 -0.000002 -0.019290 0.001559 -0.001660 -0.000002 0.000002 0.000002 -0.014370 0.000155 -0.000950 0.000000 0.000000 0.000000 -0.088670 0.009084 0.002840 0.000005 -0.000001 0.000001 -0.027030 0.001408 -0.004530 0.000000 -0.000000 -0.000000 -0.022190 -0.000874 -0.003490 0.000002 0.000000 -0.000003 -0.031330 -0.025202 -0.003920 -0.000000 -0.000001 -0.000003 -0.009060 -0.015656 -0.021930 0.000005 0.000001 0.000002 -0.032390 -0.002610 -0.004760 0.000002 0.000000 -0.000002 -0.000000 0.013340 0.298010 -6.452121 13.298728 -2.996173 0.000000 -0.041895 0.111740 6.794096 -19.662825 -2.644764 0.095465 0.006192 -0.011170 -39.162512 -10.576052 6.509036 0.013985 -0.030567 -0.374074 53.203619 0.135212 -0.761527 0.004190 0.018160 -0.382000 -4.767106 -2.217512 14.176083 0.005410 -0.109393 -0.057980 -0.000001 0.000002 0.000001 -0.095465 0.006192 -0.011170 -16.502447 -11.426249 -6.935953 -0.013985 -0.030567 -0.374074 26.521635 0.052390 0.775070 -0.004190 0.018160 -0.382000 -12.897648 -1.693943 7.765398 -0.005410 -0.109393 -0.057980 -0.000001 0.000000 0.000000 
-0.500000 0.500000 -0.815750 -0.000000 0.000000 -0.000000 0.534538 -0.464486 1.539572 6.244529 5.137369 -1.748398 0.000000 0.045650 0.072925 -6.795290 -7.531368 2.139389 0.000000 -0.022106 0.063381 -0.000000 -0.000000 0.000000 0.000000 -0.012215 0.091100 0.842219 -2.843446 0.613964 0.022930 -0.009180 0.229520 0.000002 -0.000000 0.000000 0.136760 0.000470 0.015660 79.009934 59.271323 -72.038955 0.234220 0.004524 -0.003130 -3.508295 -8.163703 -15.135689 0.212680 0.006104 0.000160 9.712296 -4.121012 0.476584 0.092010 -0.031038 0.000300 0.000002 0.000000 -0.000000 0.023320 0.000571 -0.003240 0.000003 -0.000000 0.000000 0.020690 0.001655 -0.002990 0.000000 -0.000003 -0.000002 0.092160 -0.008797 0.003860 -0.000002 0.000001 -0.000001 0.030470 0.001014 -0.005920 -0.000000 -0.000001 0.000001 0.025050 -0.000982 -0.004310 0.000000 0.000001 0.000002 0.082860 0.024648 -0.002420 -0.000002 -0.000000 0.000001 0.019290 0.001559 -0.001660 0.000004 -0.000001 0.000001 0.014370 0.000155 -0.000950 -0.000001 0.000001 -0.000000 0.088670 0.009084 0.002840 0.000004 0.000001 0.000001 0.027030 0.001408 -0.004530 -0.000002 0.000001 0.000000 0.022190 -0.000874 -0.003490 -0.000001 -0.000002 0.000001 0.031330 -0.025202 -0.003920 -0.000002 0.000003 0.000007 0.009070 -0.015656 -0.021920 0.000002 -0.000000 -0.000001 0.032390 -0.002609 -0.004770 -0.000001 -0.000002 0.000000 -0.022930 -0.009180 0.229520 0.000002 0.000000 -0.000001 -0.136760 0.000470 0.015660 66.835047 -40.259317 64.951479 -0.234220 0.004524 -0.003130 -7.425676 14.685347 28.279835 -0.212680 0.006104 0.000160 -15.266933 0.653435 -2.139268 -0.092010 -0.031038 0.000300 0.000001 -0.000001 -0.000001 -0.023320 0.000571 -0.003240 0.000000 0.000000 0.000000 -0.020690 0.001655 -0.002990 0.000002 -0.000002 -0.000003 -0.092160 -0.008797 0.003860 -0.000002 0.000001 0.000004 -0.030470 0.001014 -0.005920 -0.000001 0.000001 0.000001 -0.025050 -0.000983 -0.004310 -0.000001 -0.000001 -0.000002 -0.082860 0.024648 -0.002420 -0.000002 0.000004 -0.000001 -0.019290 0.001559 -0.001660 0.000001 0.000002 0.000003 -0.014370 0.000155 -0.000950 -0.000002 0.000002 0.000004 -0.088670 0.009084 0.002840 -0.000002 0.000002 0.000002 -0.027030 0.001408 -0.004530 0.000002 0.000001 -0.000001 -0.022190 -0.000874 -0.003490 0.000003 0.000000 -0.000001 -0.031330 -0.025202 -0.003920 0.000005 -0.000003 -0.000001 -0.009060 -0.015656 -0.021930 0.000000 0.000004 0.000001 -0.032390 -0.002610 -0.004760 0.000000 -0.000000 0.000002 -0.000000 0.013340 0.298010 -6.244216 13.562942 -2.852705 -0.000000 -0.041895 0.111740 5.289087 -19.759777 -2.582760 0.095465 0.006192 -0.011170 -41.791062 -10.389089 6.331882 0.013985 -0.030567 -0.374074 44.919207 -0.694225 -0.420893 0.004190 0.018160 -0.382000 -7.267818 -3.104007 12.564753 0.005410 -0.109393 -0.057980 0.000005 -0.000001 -0.000001 -0.095465 0.006192 -0.011170 -10.598661 -12.055918 -4.930691 -0.013985 -0.030567 -0.374074 22.355267 -0.251499 0.970130 -0.004190 0.018160 -0.382000 -11.076003 -1.216753 7.778832 -0.005410 -0.109393 -0.057980 0.000003 0.000001 -0.000001 
-0.500000 0.500000 -0.815750 -0.000000 0.000000 -0.000000 0.534538 -0.464486 1.539572 7.321443 5.359981 -3.742659 0.000000 0.045650 0.072925 -7.061650 -7.587817 3.635536 -0.000000 -0.022106 0.063381 -0.000001 0.000000 0.000000 -0.000000 -0.012215 0.091100 1.444348 -2.092238 0.996396 0.022930 -0.009180 0.229520 0.000003 -0.000000 0.000001 0.136760 0.000470 0.015660 74.014375 68.272577 -62.516605 0.234220 0.004524 -0.003130 -2.814779 -6.938901 -12.724793 0.212680 0.006104 0.000160 15.977187 -0.186808 -1.919203 0.092010 -0.031038 0.000300 0.000002 0.000000 -0.000000 0.023320 0.000571 -0.003240 0.000001 -0.000000 0.000001 0.020690 0.001655 -0.002990 -0.000001 -0.000002 -0.000002 0.092160 -0.008797 0.003860 -0.000004 0.000000 -0.000002 0.030470 0.001014 -0.005920 -0.000002 0.000001 -0.000001 0.025050 -0.000982 -0.004310 0.000004 0.000001 0.000002 0.082860 0.024648 -0.002420 -0.000002 -0.000001 -0.000002 0.019290 0.001559 -0.001660 -0.000001 -0.000001 0.000001 0.014370 0.000155 -0.000950 0.000004 -0.000000 0.000000 0.088670 0.009084 0.002840 0.000001 0.000000 -0.000001 0.027030 0.001408 -0.004530 -0.000002 0.000000 -0.000000 0.022190 -0.000874 -0.003490 0.000002 -0.000002 0.000002 0.031330 -0.025202 -0.003920 -0.000001 0.000004 0.000003 0.009070 -0.015657 -0.021920 -0.000002 -0.000000 0.000000 0.032390 -0.002609 -0.004770 0.000001 -0.000003 -0.000002 -0.022930 -0.009180 0.229520 0.000002 -0.000000 -0.000001 -0.136760 0.000470 0.015660 63.486683 -35.902869 65.494581 -0.234220 0.004524 -0.003130 -8.977502 16.189319 32.190917 -0.212680 0.006104 0.000160 -18.858055 0.804023 -2.610785 -0.092010 -0.031038 0.000300 0.000001 0.000000 -0.000000 -0.023320 0.000571 -0.003240 0.000000 0.000001 -0.000000 -0.020690 0.001655 -0.002990 0.000002 0.000002 0.000001 -0.092160 -0.008797 0.003860 -0.000000 0.000001 0.000001 -0.030470 0.001014 -0.005920 -0.000001 0.000000 0.000001 -0.025050 -0.000983 -0.004310 -0.000003 0.000001 0.000002 -0.082860 0.024648 -0.002420 0.000002 -0.000003 -0.000000 -0.019290 0.001559 -0.001660 -0.000000 0.000001 0.000001 -0.014370 0.000155 -0.000950 0.000002 0.000001 0.000002 -0.088670 0.009084 0.002840 0.000002 0.000000 0.000002 -0.027030 0.001408 -0.004530 -0.000003 0.000001 0.000000 -0.022190 -0.000874 -0.003490 -0.000001 0.000003 0.000002 -0.031330 -0.025202 -0.003920 0.000003 -0.000002 -0.000003 -0.009060 -0.015656 -0.021930 0.000001 0.000002 0.000004 -0.032390 -0.002610 -0.004760 -0.000000 -0.000001 -0.000005 0.000000 0.013340 0.298010 -7.110478 13.458512 -2.748040 0.000000 -0.041895 0.111740 4.879075 -19.501220 -2.624827 0.095465 0.006192 -0.011170 -42.084159 -9.629097 5.666612 0.013985 -0.030567 -0.374074 31.416565 -1.454926 -0.119844 0.004190 0.018160 -0.382000 -7.792197 -2.660793 11.825798 0.005410 -0.109393 -0.057980 0.000001 0.000002 -0.000001 -0.095465 0.006192 -0.011170 -5.193649 -11.754307 -3.636289 -0.013985 -0.030567 -0.374074 17.415630 -0.279115 0.916289 -0.004190 0.018160 -0.382000 -9.447853 -1.424883 9.236794 -0.005410 -0.109393 -0.057980 -0.000001 0.000000 0.000001 
-0.500000 0.500000 -0.815750 -0.000000 0.000000 -0.000000 0.534538 -0.464486 1.539572 7.873005 5.730010 -6.015321 0.000000 0.045650 0.072925 -7.133850 -7.955326 5.012231 -0.000000 -0.022106 0.063381 -0.000002 0.000000 0.000000 0.000000 -0.012215 0.091100 1.580965 -1.674324 1.369621 0.022930 -0.009180 0.229520 0.000003 -0.000000 0.000000 0.136760 0.000470 0.015660 37.053626 79.507466 -20.691740 0.234220 0.004524 -0.003130 -1.728130 -4.496504 -8.128641 0.212680 0.006104 0.000160 33.963587 -1.186418 -4.227584 0.092010 -0.031038 0.000300 0.000002 -0.000003 0.000002 0.023320 0.000571 -0.003240 0.000003 0.000001 -0.000001 0.020690 0.001655 -0.002990 -0.000001 -0.000004 0.000001 0.092160 -0.008797 0.003860 0.000001 -0.000001 -0.000000 0.030470 0.001014 -0.005920 -0.000004 -0.000000 0.000000 0.025050 -0.000982 -0.004310 0.000004 -0.000003 0.000001 0.082860 0.024648 -0.002420 0.000001 -0.000002 0.000001 0.019290 0.001559 -0.001660 0.000001 0.000000 0.000003 0.014370 0.000155 -0.000950 0.000002 0.000001 -0.000001 0.088670 0.009084 0.002840 -0.000001 -0.000002 0.000002 0.027030 0.001408 -0.004530 0.000002 0.000001 0.000000 0.022190 -0.000874 -0.003490 0.000000 -0.000002 0.000002 0.031330 -0.025202 -0.003920 0.000002 0.000001 0.000009 0.009070 -0.015656 -0.021920 0.000004 -0.000001 0.000000 0.032390 -0.002609 -0.004770 0.000002 -0.000002 -0.000000 -0.022930 -0.009180 0.229520 0.000002 -0.000000 -0.000001 -0.136760 0.000470 0.015660 61.116458 -33.018712 65.398515 -0.234220 0.004524 -0.003130 -10.728279 17.728849 36.502013 -0.212680 0.006104 0.000160 -21.209049 0.916955 -2.914090 -0.092010 -0.031038 0.000300 -0.000002 -0.000000 -0.000000 -0.023320 0.000571 -0.003240 0.000001 0.000001 -0.000000 -0.020690 0.001655 -0.002990 -0.000003 0.000000 0.000002 -0.092160 -0.008797 0.003860 0.000001 -0.000001 -0.000003 -0.030470 0.001014 -0.005920 -0.000003 0.000001 0.000005 -0.025050 -0.000983 -0.004310 -0.000003 0.000001 -0.000001 -0.082860 0.024648 -0.002420 -0.000004 -0.000002 -0.000003 -0.019290 0.001559 -0.001660 0.000005 0.000001 -0.000001 -0.014370 0.000155 -0.000950 0.000001 -0.000002 -0.000007 -0.088670 0.009084 0.002840 -0.000002 -0.000004 -0.000003 -0.027030 0.001408 -0.004530 -0.000003 0.000003 0.000003 -0.022190 -0.000874 -0.003490 -0.000000 0.000002 0.000000 -0.031330 -0.025202 -0.003920 -0.000000 -0.000008 -0.000003 -0.009060 -0.015656 -0.021930 0.000004 -0.000001 0.000001 -0.032390 -0.002610 -0.004760 0.000002 0.000000 -0.000005 -0.000000 0.013340 0.298010 -7.352714 13.584327 -2.481780 0.000000 -0.041895 0.111740 4.543625 -19.336974 -2.210674 0.095465 0.006192 -0.011170 -41.388850 -8.173744 -2.453066 0.013985 -0.030567 -0.374074 17.706798 -0.275854 -0.200113 0.004190 0.018160 -0.382000 -8.988083 -3.295004 13.950033 0.005410 -0.109393 -0.057980 -0.000000 0.000001 -0.000001 -0.095465 0.006192 -0.011170 0.959449 -11.100751 -1.610409 -0.013985 -0.030567 -0.374074 11.555745 -0.294156 0.765800 -0.004190 0.018160 -0.382000 -5.905712 -1.171222 11.004877 -0.005410 -0.109393 -0.057980 -0.000001 0.000000 -0.000000 
